<mxfile host="app.diagrams.net" modified="2023-07-10T06:25:13.874Z" agent="Mozilla/5.0 (X11; Ubuntu; Linux x86_64; rv:109.0) Gecko/20100101 Firefox/114.0" etag="al0UfO1cvfLcez2A2JLA" version="21.5.2" type="device">
  <diagram name="Page-1" id="O8cnq2PnWC07Ag3K9qyT">
    <mxGraphModel dx="1793" dy="926" grid="1" gridSize="7" guides="1" tooltips="1" connect="1" arrows="1" fold="1" page="1" pageScale="1" pageWidth="850" pageHeight="1100" math="1" shadow="0">
      <root>
        <mxCell id="0" />
        <mxCell id="1" parent="0" />
        <mxCell id="zP_GE6idb2QgoOQ9gRlq-120" style="edgeStyle=orthogonalEdgeStyle;rounded=0;orthogonalLoop=1;jettySize=auto;html=1;endArrow=classic;endFill=1;startArrow=classic;startFill=1;entryX=0.782;entryY=1.003;entryDx=0;entryDy=0;entryPerimeter=0;" edge="1" parent="1" source="zP_GE6idb2QgoOQ9gRlq-34" target="zP_GE6idb2QgoOQ9gRlq-53">
          <mxGeometry relative="1" as="geometry">
            <mxPoint x="427" y="350" as="targetPoint" />
            <Array as="points">
              <mxPoint x="161" y="350" />
            </Array>
          </mxGeometry>
        </mxCell>
        <mxCell id="zP_GE6idb2QgoOQ9gRlq-126" style="edgeStyle=orthogonalEdgeStyle;rounded=0;orthogonalLoop=1;jettySize=auto;html=1;entryX=0.245;entryY=0.995;entryDx=0;entryDy=0;entryPerimeter=0;jumpStyle=arc;" edge="1" parent="1" source="zP_GE6idb2QgoOQ9gRlq-34" target="zP_GE6idb2QgoOQ9gRlq-121">
          <mxGeometry relative="1" as="geometry">
            <Array as="points">
              <mxPoint x="168" y="318" />
            </Array>
          </mxGeometry>
        </mxCell>
        <mxCell id="zP_GE6idb2QgoOQ9gRlq-34" value="FIFO" style="ellipse;whiteSpace=wrap;html=1;fillColor=none;" vertex="1" parent="1">
          <mxGeometry x="84" y="161" width="602" height="77" as="geometry" />
        </mxCell>
        <mxCell id="zP_GE6idb2QgoOQ9gRlq-106" style="edgeStyle=orthogonalEdgeStyle;rounded=0;orthogonalLoop=1;jettySize=auto;html=1;exitX=0.132;exitY=1;exitDx=0;exitDy=0;endArrow=none;endFill=0;startArrow=classic;startFill=1;jumpStyle=arc;entryX=1.004;entryY=0.614;entryDx=0;entryDy=0;entryPerimeter=0;exitPerimeter=0;" edge="1" parent="1" source="zP_GE6idb2QgoOQ9gRlq-40" target="zP_GE6idb2QgoOQ9gRlq-46">
          <mxGeometry relative="1" as="geometry">
            <mxPoint x="406" y="353" as="targetPoint" />
            <mxPoint x="651" y="400.6099999999999" as="sourcePoint" />
            <Array as="points">
              <mxPoint x="406" y="400" />
              <mxPoint x="406" y="385" />
              <mxPoint x="382" y="385" />
            </Array>
          </mxGeometry>
        </mxCell>
        <mxCell id="zP_GE6idb2QgoOQ9gRlq-119" style="edgeStyle=orthogonalEdgeStyle;rounded=0;orthogonalLoop=1;jettySize=auto;html=1;" edge="1" parent="1" source="zP_GE6idb2QgoOQ9gRlq-40">
          <mxGeometry relative="1" as="geometry">
            <mxPoint x="770" y="347" as="targetPoint" />
          </mxGeometry>
        </mxCell>
        <mxCell id="zP_GE6idb2QgoOQ9gRlq-40" value="" style="verticalLabelPosition=middle;verticalAlign=middle;html=1;shape=trapezoid;perimeter=trapezoidPerimeter;whiteSpace=wrap;size=0.18268494676038693;arcSize=10;flipV=1;labelPosition=center;align=center;rotation=-90;fillColor=none;" vertex="1" parent="1">
          <mxGeometry x="644" y="329.93999999999994" width="143.69" height="35" as="geometry" />
        </mxCell>
        <mxCell id="zP_GE6idb2QgoOQ9gRlq-58" style="edgeStyle=orthogonalEdgeStyle;rounded=0;orthogonalLoop=1;jettySize=auto;html=1;startArrow=classic;startFill=1;endArrow=none;endFill=0;" edge="1" parent="1" source="zP_GE6idb2QgoOQ9gRlq-42">
          <mxGeometry relative="1" as="geometry">
            <mxPoint x="476" y="365.5499999999997" as="targetPoint" />
          </mxGeometry>
        </mxCell>
        <mxCell id="zP_GE6idb2QgoOQ9gRlq-68" style="edgeStyle=orthogonalEdgeStyle;rounded=0;orthogonalLoop=1;jettySize=auto;html=1;entryX=0.376;entryY=1;entryDx=0;entryDy=0;entryPerimeter=0;" edge="1" parent="1" source="zP_GE6idb2QgoOQ9gRlq-42" target="zP_GE6idb2QgoOQ9gRlq-40">
          <mxGeometry relative="1" as="geometry">
            <Array as="points" />
          </mxGeometry>
        </mxCell>
        <mxCell id="zP_GE6idb2QgoOQ9gRlq-111" style="edgeStyle=orthogonalEdgeStyle;rounded=0;orthogonalLoop=1;jettySize=auto;html=1;entryX=0;entryY=0.5;entryDx=0;entryDy=0;" edge="1" parent="1" source="zP_GE6idb2QgoOQ9gRlq-42" target="zP_GE6idb2QgoOQ9gRlq-107">
          <mxGeometry relative="1" as="geometry">
            <Array as="points">
              <mxPoint x="581" y="366" />
              <mxPoint x="581" y="328" />
            </Array>
          </mxGeometry>
        </mxCell>
        <mxCell id="zP_GE6idb2QgoOQ9gRlq-42" value="+" style="ellipse;whiteSpace=wrap;html=1;aspect=fixed;fontStyle=1;fillColor=none;" vertex="1" parent="1">
          <mxGeometry x="539" y="352.67999999999995" width="25.74" height="25.74" as="geometry" />
        </mxCell>
        <mxCell id="zP_GE6idb2QgoOQ9gRlq-97" style="edgeStyle=orthogonalEdgeStyle;rounded=0;orthogonalLoop=1;jettySize=auto;html=1;entryX=0.153;entryY=1.001;entryDx=0;entryDy=0;entryPerimeter=0;" edge="1" parent="1" source="zP_GE6idb2QgoOQ9gRlq-46" target="zP_GE6idb2QgoOQ9gRlq-53">
          <mxGeometry relative="1" as="geometry">
            <Array as="points">
              <mxPoint x="314" y="385" />
              <mxPoint x="435" y="385" />
            </Array>
          </mxGeometry>
        </mxCell>
        <mxCell id="zP_GE6idb2QgoOQ9gRlq-46" value="&lt;font style=&quot;font-size: 8px;&quot;&gt;fqmul&lt;/font&gt;" style="rounded=1;whiteSpace=wrap;html=1;fillColor=none;" vertex="1" parent="1">
          <mxGeometry x="258.99999999999994" y="371" width="122.69" height="26.43" as="geometry" />
        </mxCell>
        <mxCell id="zP_GE6idb2QgoOQ9gRlq-80" style="edgeStyle=orthogonalEdgeStyle;rounded=0;orthogonalLoop=1;jettySize=auto;html=1;entryX=0;entryY=0.5;entryDx=0;entryDy=0;endArrow=none;endFill=0;" edge="1" parent="1" source="zP_GE6idb2QgoOQ9gRlq-53" target="zP_GE6idb2QgoOQ9gRlq-42">
          <mxGeometry relative="1" as="geometry" />
        </mxCell>
        <mxCell id="zP_GE6idb2QgoOQ9gRlq-53" value="" style="verticalLabelPosition=middle;verticalAlign=middle;html=1;shape=trapezoid;perimeter=trapezoidPerimeter;whiteSpace=wrap;size=0.2727272727272727;arcSize=10;flipV=1;labelPosition=center;align=center;rotation=-90;fillColor=none;" vertex="1" parent="1">
          <mxGeometry x="418" y="354.80999999999995" width="55.28" height="21.48" as="geometry" />
        </mxCell>
        <mxCell id="zP_GE6idb2QgoOQ9gRlq-127" style="edgeStyle=orthogonalEdgeStyle;rounded=0;orthogonalLoop=1;jettySize=auto;html=1;" edge="1" parent="1" source="zP_GE6idb2QgoOQ9gRlq-55" target="zP_GE6idb2QgoOQ9gRlq-34">
          <mxGeometry relative="1" as="geometry">
            <Array as="points">
              <mxPoint x="581" y="304" />
            </Array>
          </mxGeometry>
        </mxCell>
        <mxCell id="zP_GE6idb2QgoOQ9gRlq-55" value="-" style="ellipse;whiteSpace=wrap;html=1;aspect=fixed;fillColor=none;" vertex="1" parent="1">
          <mxGeometry x="539" y="291.3899999999999" width="25.74" height="25.74" as="geometry" />
        </mxCell>
        <mxCell id="zP_GE6idb2QgoOQ9gRlq-59" value="" style="endArrow=none;html=1;rounded=0;entryX=0;entryY=0.5;entryDx=0;entryDy=0;exitX=0.496;exitY=-0.044;exitDx=0;exitDy=0;exitPerimeter=0;" edge="1" parent="1" source="zP_GE6idb2QgoOQ9gRlq-121" target="zP_GE6idb2QgoOQ9gRlq-42">
          <mxGeometry width="50" height="50" relative="1" as="geometry">
            <mxPoint x="476" y="301" as="sourcePoint" />
            <mxPoint x="491" y="294" as="targetPoint" />
          </mxGeometry>
        </mxCell>
        <mxCell id="zP_GE6idb2QgoOQ9gRlq-61" value="" style="endArrow=none;html=1;rounded=0;entryX=0;entryY=0.5;entryDx=0;entryDy=0;exitX=0.515;exitY=0;exitDx=0;exitDy=0;exitPerimeter=0;" edge="1" parent="1" source="zP_GE6idb2QgoOQ9gRlq-53" target="zP_GE6idb2QgoOQ9gRlq-55">
          <mxGeometry width="50" height="50" relative="1" as="geometry">
            <mxPoint x="476" y="364" as="sourcePoint" />
            <mxPoint x="539" y="315" as="targetPoint" />
          </mxGeometry>
        </mxCell>
        <mxCell id="zP_GE6idb2QgoOQ9gRlq-78" style="edgeStyle=orthogonalEdgeStyle;rounded=0;orthogonalLoop=1;jettySize=auto;html=1;" edge="1" parent="1" source="zP_GE6idb2QgoOQ9gRlq-77" target="zP_GE6idb2QgoOQ9gRlq-46">
          <mxGeometry relative="1" as="geometry">
            <Array as="points">
              <mxPoint x="223" y="385" />
            </Array>
          </mxGeometry>
        </mxCell>
        <mxCell id="zP_GE6idb2QgoOQ9gRlq-98" style="edgeStyle=orthogonalEdgeStyle;rounded=0;orthogonalLoop=1;jettySize=auto;html=1;exitX=0.299;exitY=1.006;exitDx=0;exitDy=0;startArrow=classic;startFill=1;endArrow=none;endFill=0;jumpStyle=arc;exitPerimeter=0;" edge="1" parent="1" source="zP_GE6idb2QgoOQ9gRlq-77" target="zP_GE6idb2QgoOQ9gRlq-34">
          <mxGeometry relative="1" as="geometry">
            <Array as="points">
              <mxPoint x="112" y="396" />
            </Array>
          </mxGeometry>
        </mxCell>
        <mxCell id="zP_GE6idb2QgoOQ9gRlq-77" value="" style="verticalLabelPosition=middle;verticalAlign=middle;html=1;shape=trapezoid;perimeter=trapezoidPerimeter;whiteSpace=wrap;size=0.2727272727272727;arcSize=10;flipV=1;labelPosition=center;align=center;rotation=-90;fillColor=none;" vertex="1" parent="1">
          <mxGeometry x="189" y="374.54999999999995" width="49.03" height="22.88" as="geometry" />
        </mxCell>
        <mxCell id="zP_GE6idb2QgoOQ9gRlq-104" value="" style="endArrow=classic;html=1;rounded=0;edgeStyle=orthogonalEdgeStyle;entryX=0.707;entryY=1.006;entryDx=0;entryDy=0;entryPerimeter=0;jumpStyle=arc;" edge="1" parent="1" target="zP_GE6idb2QgoOQ9gRlq-77">
          <mxGeometry width="50" height="50" relative="1" as="geometry">
            <mxPoint x="63" y="350" as="sourcePoint" />
            <mxPoint x="161" y="378" as="targetPoint" />
            <Array as="points">
              <mxPoint x="63" y="350" />
              <mxPoint x="161" y="350" />
              <mxPoint x="161" y="376" />
            </Array>
          </mxGeometry>
        </mxCell>
        <mxCell id="zP_GE6idb2QgoOQ9gRlq-159" style="edgeStyle=orthogonalEdgeStyle;rounded=0;orthogonalLoop=1;jettySize=auto;html=1;entryX=0;entryY=0.335;entryDx=0;entryDy=0;entryPerimeter=0;" edge="1" parent="1" source="zP_GE6idb2QgoOQ9gRlq-107" target="zP_GE6idb2QgoOQ9gRlq-133">
          <mxGeometry relative="1" as="geometry">
            <mxPoint x="679" y="328.21500000000003" as="targetPoint" />
          </mxGeometry>
        </mxCell>
        <mxCell id="zP_GE6idb2QgoOQ9gRlq-107" value="barrett" style="rounded=1;whiteSpace=wrap;html=1;fillColor=none;" vertex="1" parent="1">
          <mxGeometry x="609" y="315" width="56" height="26.43" as="geometry" />
        </mxCell>
        <mxCell id="zP_GE6idb2QgoOQ9gRlq-116" value="" style="endArrow=classic;html=1;rounded=0;entryX=0.867;entryY=1;entryDx=0;entryDy=0;entryPerimeter=0;edgeStyle=orthogonalEdgeStyle;" edge="1" parent="1" source="zP_GE6idb2QgoOQ9gRlq-34" target="zP_GE6idb2QgoOQ9gRlq-40">
          <mxGeometry width="50" height="50" relative="1" as="geometry">
            <mxPoint x="595" y="358" as="sourcePoint" />
            <mxPoint x="645" y="308" as="targetPoint" />
            <Array as="points">
              <mxPoint x="588" y="295" />
            </Array>
          </mxGeometry>
        </mxCell>
        <mxCell id="zP_GE6idb2QgoOQ9gRlq-117" value="" style="endArrow=classic;html=1;rounded=0;entryX=0.52;entryY=0.999;entryDx=0;entryDy=0;entryPerimeter=0;exitX=0.474;exitY=0.997;exitDx=0;exitDy=0;exitPerimeter=0;" edge="1" parent="1" source="zP_GE6idb2QgoOQ9gRlq-34" target="zP_GE6idb2QgoOQ9gRlq-34">
          <mxGeometry width="50" height="50" relative="1" as="geometry">
            <mxPoint x="364" y="266" as="sourcePoint" />
            <mxPoint x="394.62200000000007" y="266.615" as="targetPoint" />
          </mxGeometry>
        </mxCell>
        <mxCell id="zP_GE6idb2QgoOQ9gRlq-118" value="" style="endArrow=classic;html=1;rounded=0;entryX=0.475;entryY=0.004;entryDx=0;entryDy=0;entryPerimeter=0;exitX=0.512;exitY=0.001;exitDx=0;exitDy=0;exitPerimeter=0;" edge="1" parent="1" source="zP_GE6idb2QgoOQ9gRlq-34" target="zP_GE6idb2QgoOQ9gRlq-34">
          <mxGeometry width="50" height="50" relative="1" as="geometry">
            <mxPoint x="371" y="273" as="sourcePoint" />
            <mxPoint x="404" y="273" as="targetPoint" />
          </mxGeometry>
        </mxCell>
        <mxCell id="zP_GE6idb2QgoOQ9gRlq-128" style="edgeStyle=orthogonalEdgeStyle;rounded=0;orthogonalLoop=1;jettySize=auto;html=1;" edge="1" parent="1" source="zP_GE6idb2QgoOQ9gRlq-121" target="zP_GE6idb2QgoOQ9gRlq-55">
          <mxGeometry relative="1" as="geometry" />
        </mxCell>
        <mxCell id="zP_GE6idb2QgoOQ9gRlq-121" value="" style="verticalLabelPosition=middle;verticalAlign=middle;html=1;shape=trapezoid;perimeter=trapezoidPerimeter;whiteSpace=wrap;size=0.2727272727272727;arcSize=10;flipV=1;labelPosition=center;align=center;rotation=-90;fillColor=none;" vertex="1" parent="1">
          <mxGeometry x="418" y="293.52" width="55.28" height="21.48" as="geometry" />
        </mxCell>
        <mxCell id="zP_GE6idb2QgoOQ9gRlq-129" value="&lt;div style=&quot;font-size: 8px;&quot;&gt;&lt;font style=&quot;font-size: 8px;&quot;&gt;ntt&lt;br&gt;&lt;br&gt;&lt;/font&gt;&lt;/div&gt;&lt;div style=&quot;font-size: 8px;&quot;&gt;&lt;font style=&quot;font-size: 8px;&quot;&gt;intt&lt;/font&gt;&lt;/div&gt;" style="text;html=1;strokeColor=none;fillColor=none;align=center;verticalAlign=middle;whiteSpace=wrap;rounded=0;fontSize=9;" vertex="1" parent="1">
          <mxGeometry x="430.57" y="283.26" width="26.15" height="42" as="geometry" />
        </mxCell>
        <mxCell id="zP_GE6idb2QgoOQ9gRlq-131" value="&lt;div style=&quot;font-size: 8px;&quot;&gt;&lt;font style=&quot;font-size: 8px;&quot;&gt;intt&lt;br&gt;&lt;br&gt;&lt;/font&gt;&lt;/div&gt;&lt;div style=&quot;font-size: 8px;&quot;&gt;&lt;font style=&quot;font-size: 8px;&quot;&gt;ntt&lt;/font&gt;&lt;/div&gt;" style="text;html=1;strokeColor=none;fillColor=none;align=center;verticalAlign=middle;whiteSpace=wrap;rounded=0;fontSize=9;" vertex="1" parent="1">
          <mxGeometry x="430.56999999999994" y="344.54999999999995" width="26.15" height="42" as="geometry" />
        </mxCell>
        <mxCell id="zP_GE6idb2QgoOQ9gRlq-132" value="&lt;font style=&quot;font-size: 8px;&quot;&gt;ntt&lt;/font&gt;&lt;div style=&quot;font-size: 8px;&quot;&gt;&lt;font style=&quot;font-size: 8px;&quot;&gt;&lt;br&gt;&lt;/font&gt;&lt;/div&gt;&lt;div style=&quot;font-size: 8px;&quot;&gt;&lt;font style=&quot;font-size: 8px;&quot;&gt;intt&lt;/font&gt;&lt;/div&gt;" style="text;html=1;strokeColor=none;fillColor=none;align=center;verticalAlign=middle;whiteSpace=wrap;rounded=0;fontSize=9;" vertex="1" parent="1">
          <mxGeometry x="198.44" y="364.94" width="26.15" height="42" as="geometry" />
        </mxCell>
        <mxCell id="zP_GE6idb2QgoOQ9gRlq-133" value="&lt;div style=&quot;font-size: 12px;&quot;&gt;&lt;font style=&quot;font-size: 12px;&quot;&gt;ntt(1)&lt;br&gt;&lt;br&gt;&lt;/font&gt;&lt;/div&gt;&lt;div style=&quot;font-size: 12px;&quot;&gt;&lt;font style=&quot;font-size: 12px;&quot;&gt;intt(0)&lt;/font&gt;&lt;/div&gt;&lt;div style=&quot;font-size: 12px;&quot;&gt;&lt;font style=&quot;font-size: 12px;&quot;&gt;&lt;br&gt;&lt;/font&gt;&lt;/div&gt;&lt;div style=&quot;font-size: 12px;&quot;&gt;&lt;font style=&quot;font-size: 12px;&quot;&gt;ntt(0)&lt;/font&gt;&lt;/div&gt;&lt;div style=&quot;font-size: 12px;&quot;&gt;&lt;font style=&quot;font-size: 12px;&quot;&gt;&lt;br&gt;&lt;/font&gt;&lt;/div&gt;&lt;div style=&quot;font-size: 12px;&quot;&gt;&lt;font style=&quot;font-size: 12px;&quot;&gt;intt(1)&lt;br&gt;&lt;/font&gt;&lt;/div&gt;" style="text;html=1;strokeColor=none;fillColor=none;align=center;verticalAlign=middle;whiteSpace=wrap;rounded=0;fontSize=9;" vertex="1" parent="1">
          <mxGeometry x="698.35" y="289.59000000000015" width="35" height="115.7" as="geometry" />
        </mxCell>
        <mxCell id="zP_GE6idb2QgoOQ9gRlq-139" value="" style="endArrow=classic;html=1;rounded=0;edgeStyle=orthogonalEdgeStyle;jumpStyle=arc;" edge="1" parent="1" target="zP_GE6idb2QgoOQ9gRlq-34">
          <mxGeometry width="50" height="50" relative="1" as="geometry">
            <mxPoint x="581" y="265" as="sourcePoint" />
            <mxPoint x="512" y="287" as="targetPoint" />
            <Array as="points">
              <mxPoint x="217" y="265" />
            </Array>
          </mxGeometry>
        </mxCell>
        <mxCell id="zP_GE6idb2QgoOQ9gRlq-140" value="" style="endArrow=classic;html=1;rounded=0;edgeStyle=orthogonalEdgeStyle;exitX=0.536;exitY=0.995;exitDx=0;exitDy=0;exitPerimeter=0;entryX=0.643;entryY=1.006;entryDx=0;entryDy=0;entryPerimeter=0;jumpStyle=arc;" edge="1" parent="1" source="zP_GE6idb2QgoOQ9gRlq-34" target="zP_GE6idb2QgoOQ9gRlq-121">
          <mxGeometry width="50" height="50" relative="1" as="geometry">
            <mxPoint x="455" y="323" as="sourcePoint" />
            <mxPoint x="483" y="280" as="targetPoint" />
            <Array as="points">
              <mxPoint x="407" y="296" />
            </Array>
          </mxGeometry>
        </mxCell>
        <mxCell id="zP_GE6idb2QgoOQ9gRlq-149" value="ntt" style="text;html=1;strokeColor=none;fillColor=none;align=center;verticalAlign=middle;whiteSpace=wrap;rounded=0;" vertex="1" parent="1">
          <mxGeometry x="564.74" y="203" width="35" height="23" as="geometry" />
        </mxCell>
        <mxCell id="zP_GE6idb2QgoOQ9gRlq-150" value="intt" style="text;html=1;strokeColor=none;fillColor=none;align=center;verticalAlign=middle;whiteSpace=wrap;rounded=0;" vertex="1" parent="1">
          <mxGeometry x="210" y="210" width="35" height="23" as="geometry" />
        </mxCell>
        <mxCell id="zP_GE6idb2QgoOQ9gRlq-152" value="ntt" style="text;html=1;strokeColor=none;fillColor=none;align=center;verticalAlign=middle;whiteSpace=wrap;rounded=0;" vertex="1" parent="1">
          <mxGeometry x="392" y="215" width="35" height="23" as="geometry" />
        </mxCell>
        <mxCell id="zP_GE6idb2QgoOQ9gRlq-153" value="" style="shape=ellipse;html=1;sketch=0;fillColor=#FFFFFF;" vertex="1" parent="1">
          <mxGeometry x="158" y="347" width="5.43" height="5.43" as="geometry" />
        </mxCell>
        <mxCell id="zP_GE6idb2QgoOQ9gRlq-157" value="intt" style="text;html=1;strokeColor=none;fillColor=none;align=center;verticalAlign=middle;whiteSpace=wrap;rounded=0;" vertex="1" parent="1">
          <mxGeometry x="98" y="196" width="35" height="23" as="geometry" />
        </mxCell>
        <mxCell id="zP_GE6idb2QgoOQ9gRlq-186" style="edgeStyle=orthogonalEdgeStyle;rounded=0;orthogonalLoop=1;jettySize=auto;html=1;entryX=0;entryY=0.5;entryDx=0;entryDy=0;" edge="1" parent="1" source="zP_GE6idb2QgoOQ9gRlq-160" target="zP_GE6idb2QgoOQ9gRlq-163">
          <mxGeometry relative="1" as="geometry">
            <mxPoint x="327.98" y="706" as="targetPoint" />
            <Array as="points">
              <mxPoint x="292.98" y="706" />
            </Array>
          </mxGeometry>
        </mxCell>
        <mxCell id="zP_GE6idb2QgoOQ9gRlq-211" style="edgeStyle=orthogonalEdgeStyle;rounded=0;orthogonalLoop=1;jettySize=auto;html=1;entryX=0.347;entryY=1.013;entryDx=0;entryDy=0;jumpStyle=arc;entryPerimeter=0;" edge="1" parent="1" source="zP_GE6idb2QgoOQ9gRlq-160" target="zP_GE6idb2QgoOQ9gRlq-200">
          <mxGeometry relative="1" as="geometry">
            <Array as="points">
              <mxPoint x="460.98" y="844" />
              <mxPoint x="54.980000000000004" y="844" />
              <mxPoint x="54.980000000000004" y="809" />
              <mxPoint x="78.98" y="809" />
            </Array>
          </mxGeometry>
        </mxCell>
        <mxCell id="zP_GE6idb2QgoOQ9gRlq-160" value="FIFO" style="ellipse;whiteSpace=wrap;html=1;fillColor=none;" vertex="1" parent="1">
          <mxGeometry x="262.98" y="550" width="233" height="105" as="geometry" />
        </mxCell>
        <mxCell id="zP_GE6idb2QgoOQ9gRlq-223" style="edgeStyle=orthogonalEdgeStyle;rounded=0;orthogonalLoop=1;jettySize=auto;html=1;entryX=0;entryY=0.376;entryDx=0;entryDy=0;entryPerimeter=0;" edge="1" parent="1" source="zP_GE6idb2QgoOQ9gRlq-161" target="zP_GE6idb2QgoOQ9gRlq-216">
          <mxGeometry relative="1" as="geometry" />
        </mxCell>
        <mxCell id="zP_GE6idb2QgoOQ9gRlq-161" value="barrett" style="rounded=1;whiteSpace=wrap;html=1;fillColor=none;" vertex="1" parent="1">
          <mxGeometry x="509.98" y="719" width="56" height="26.43" as="geometry" />
        </mxCell>
        <mxCell id="zP_GE6idb2QgoOQ9gRlq-193" style="edgeStyle=orthogonalEdgeStyle;rounded=0;orthogonalLoop=1;jettySize=auto;html=1;entryX=0;entryY=0.5;entryDx=0;entryDy=0;" edge="1" parent="1" target="zP_GE6idb2QgoOQ9gRlq-161">
          <mxGeometry relative="1" as="geometry">
            <mxPoint x="481.98" y="767" as="sourcePoint" />
            <Array as="points">
              <mxPoint x="481.98" y="767" />
              <mxPoint x="481.98" y="732" />
            </Array>
          </mxGeometry>
        </mxCell>
        <mxCell id="zP_GE6idb2QgoOQ9gRlq-212" style="edgeStyle=orthogonalEdgeStyle;rounded=0;orthogonalLoop=1;jettySize=auto;html=1;entryX=0.388;entryY=1.01;entryDx=0;entryDy=0;entryPerimeter=0;jumpStyle=arc;" edge="1" parent="1" source="zP_GE6idb2QgoOQ9gRlq-162" target="zP_GE6idb2QgoOQ9gRlq-188">
          <mxGeometry relative="1" as="geometry" />
        </mxCell>
        <mxCell id="zP_GE6idb2QgoOQ9gRlq-162" value="+" style="ellipse;whiteSpace=wrap;html=1;aspect=fixed;fontStyle=1;fillColor=none;" vertex="1" parent="1">
          <mxGeometry x="411.98" y="754.55" width="25.74" height="25.74" as="geometry" />
        </mxCell>
        <mxCell id="zP_GE6idb2QgoOQ9gRlq-187" style="edgeStyle=orthogonalEdgeStyle;rounded=0;orthogonalLoop=1;jettySize=auto;html=1;" edge="1" parent="1" source="zP_GE6idb2QgoOQ9gRlq-163" target="zP_GE6idb2QgoOQ9gRlq-160">
          <mxGeometry relative="1" as="geometry">
            <Array as="points">
              <mxPoint x="453.98" y="706" />
            </Array>
          </mxGeometry>
        </mxCell>
        <mxCell id="zP_GE6idb2QgoOQ9gRlq-191" style="edgeStyle=orthogonalEdgeStyle;rounded=0;orthogonalLoop=1;jettySize=auto;html=1;entryX=0.818;entryY=1;entryDx=0;entryDy=0;entryPerimeter=0;" edge="1" parent="1" source="zP_GE6idb2QgoOQ9gRlq-160" target="zP_GE6idb2QgoOQ9gRlq-188">
          <mxGeometry relative="1" as="geometry">
            <Array as="points">
              <mxPoint x="460.98" y="706" />
            </Array>
          </mxGeometry>
        </mxCell>
        <mxCell id="zP_GE6idb2QgoOQ9gRlq-163" value="-" style="ellipse;whiteSpace=wrap;html=1;aspect=fixed;fillColor=none;" vertex="1" parent="1">
          <mxGeometry x="411.98" y="693.2599999999999" width="25.74" height="25.74" as="geometry" />
        </mxCell>
        <mxCell id="zP_GE6idb2QgoOQ9gRlq-164" value="" style="verticalLabelPosition=middle;verticalAlign=middle;html=1;shape=trapezoid;perimeter=trapezoidPerimeter;whiteSpace=wrap;size=0.2727272727272727;arcSize=10;flipV=1;labelPosition=center;align=center;rotation=-90;fillColor=none;" vertex="1" parent="1">
          <mxGeometry x="297.27000000000004" y="754.55" width="55.28" height="21.48" as="geometry" />
        </mxCell>
        <mxCell id="zP_GE6idb2QgoOQ9gRlq-170" value="" style="endArrow=none;html=1;rounded=0;entryX=0;entryY=0.5;entryDx=0;entryDy=0;exitX=0.461;exitY=0.001;exitDx=0;exitDy=0;exitPerimeter=0;endFill=0;" edge="1" parent="1" source="zP_GE6idb2QgoOQ9gRlq-164" target="zP_GE6idb2QgoOQ9gRlq-163">
          <mxGeometry width="50" height="50" relative="1" as="geometry">
            <mxPoint x="355.98" y="753" as="sourcePoint" />
            <mxPoint x="335.98" y="662" as="targetPoint" />
          </mxGeometry>
        </mxCell>
        <mxCell id="zP_GE6idb2QgoOQ9gRlq-171" value="" style="endArrow=none;html=1;rounded=0;entryX=0;entryY=0.5;entryDx=0;entryDy=0;exitX=0.45;exitY=-0.001;exitDx=0;exitDy=0;endFill=0;exitPerimeter=0;" edge="1" parent="1" target="zP_GE6idb2QgoOQ9gRlq-162">
          <mxGeometry width="50" height="50" relative="1" as="geometry">
            <mxPoint x="335.67148" y="706.7640000000001" as="sourcePoint" />
            <mxPoint x="391.98" y="669" as="targetPoint" />
          </mxGeometry>
        </mxCell>
        <mxCell id="zP_GE6idb2QgoOQ9gRlq-173" value="" style="endArrow=classic;html=1;rounded=0;entryX=0;entryY=0.5;entryDx=0;entryDy=0;exitX=0.458;exitY=0.001;exitDx=0;exitDy=0;exitPerimeter=0;" edge="1" parent="1" source="zP_GE6idb2QgoOQ9gRlq-164" target="zP_GE6idb2QgoOQ9gRlq-162">
          <mxGeometry width="50" height="50" relative="1" as="geometry">
            <mxPoint x="341.98" y="719" as="sourcePoint" />
            <mxPoint x="391.98" y="669" as="targetPoint" />
          </mxGeometry>
        </mxCell>
        <mxCell id="zP_GE6idb2QgoOQ9gRlq-177" value="" style="group" vertex="1" connectable="0" parent="1">
          <mxGeometry x="138.98000000000002" y="715.21" width="28" height="39" as="geometry" />
        </mxCell>
        <mxCell id="zP_GE6idb2QgoOQ9gRlq-175" value="" style="rounded=0;whiteSpace=wrap;html=1;" vertex="1" parent="zP_GE6idb2QgoOQ9gRlq-177">
          <mxGeometry width="28" height="39" as="geometry" />
        </mxCell>
        <mxCell id="zP_GE6idb2QgoOQ9gRlq-176" value="" style="triangle;whiteSpace=wrap;html=1;rotation=90;" vertex="1" parent="zP_GE6idb2QgoOQ9gRlq-177">
          <mxGeometry x="-1" y="2.259999999999991" width="14" height="10" as="geometry" />
        </mxCell>
        <mxCell id="zP_GE6idb2QgoOQ9gRlq-207" style="edgeStyle=orthogonalEdgeStyle;rounded=0;orthogonalLoop=1;jettySize=auto;html=1;entryX=0.155;entryY=0.997;entryDx=0;entryDy=0;entryPerimeter=0;jumpStyle=arc;" edge="1" parent="1" source="zP_GE6idb2QgoOQ9gRlq-178" target="zP_GE6idb2QgoOQ9gRlq-188">
          <mxGeometry relative="1" as="geometry">
            <Array as="points">
              <mxPoint x="430.98" y="801" />
            </Array>
          </mxGeometry>
        </mxCell>
        <mxCell id="zP_GE6idb2QgoOQ9gRlq-208" style="edgeStyle=orthogonalEdgeStyle;rounded=0;orthogonalLoop=1;jettySize=auto;html=1;entryX=0.207;entryY=1.006;entryDx=0;entryDy=0;entryPerimeter=0;" edge="1" parent="1" source="zP_GE6idb2QgoOQ9gRlq-178" target="zP_GE6idb2QgoOQ9gRlq-164">
          <mxGeometry relative="1" as="geometry">
            <Array as="points">
              <mxPoint x="285.98" y="801" />
              <mxPoint x="285.98" y="782" />
            </Array>
          </mxGeometry>
        </mxCell>
        <mxCell id="zP_GE6idb2QgoOQ9gRlq-178" value="&lt;font style=&quot;font-size: 8px;&quot;&gt;fqmul&lt;/font&gt;" style="rounded=1;whiteSpace=wrap;html=1;fillColor=none;" vertex="1" parent="1">
          <mxGeometry x="124.97999999999995" y="788.0099999999999" width="122.69" height="26.43" as="geometry" />
        </mxCell>
        <mxCell id="zP_GE6idb2QgoOQ9gRlq-179" value="" style="group" vertex="1" connectable="0" parent="1">
          <mxGeometry x="205.67000000000002" y="715.21" width="28" height="39" as="geometry" />
        </mxCell>
        <mxCell id="zP_GE6idb2QgoOQ9gRlq-180" value="" style="rounded=0;whiteSpace=wrap;html=1;" vertex="1" parent="zP_GE6idb2QgoOQ9gRlq-179">
          <mxGeometry width="28" height="39" as="geometry" />
        </mxCell>
        <mxCell id="zP_GE6idb2QgoOQ9gRlq-181" value="" style="triangle;whiteSpace=wrap;html=1;rotation=90;" vertex="1" parent="zP_GE6idb2QgoOQ9gRlq-179">
          <mxGeometry x="-1" y="2.259999999999991" width="14" height="10" as="geometry" />
        </mxCell>
        <mxCell id="zP_GE6idb2QgoOQ9gRlq-182" value="........" style="text;html=1;strokeColor=none;fillColor=none;align=center;verticalAlign=middle;whiteSpace=wrap;rounded=0;" vertex="1" parent="1">
          <mxGeometry x="156.33000000000004" y="725" width="60" height="30" as="geometry" />
        </mxCell>
        <mxCell id="zP_GE6idb2QgoOQ9gRlq-233" style="edgeStyle=orthogonalEdgeStyle;rounded=0;orthogonalLoop=1;jettySize=auto;html=1;" edge="1" parent="1" source="zP_GE6idb2QgoOQ9gRlq-188">
          <mxGeometry relative="1" as="geometry">
            <mxPoint x="783.9999999999998" y="751.97" as="targetPoint" />
          </mxGeometry>
        </mxCell>
        <mxCell id="zP_GE6idb2QgoOQ9gRlq-188" value="" style="verticalLabelPosition=middle;verticalAlign=middle;html=1;shape=trapezoid;perimeter=trapezoidPerimeter;whiteSpace=wrap;size=0.18268494676038693;arcSize=10;flipV=1;labelPosition=center;align=center;rotation=-90;fillColor=none;" vertex="1" parent="1">
          <mxGeometry x="655.33" y="734.47" width="143.69" height="35" as="geometry" />
        </mxCell>
        <mxCell id="zP_GE6idb2QgoOQ9gRlq-195" value="" style="endArrow=classic;html=1;rounded=0;edgeStyle=orthogonalEdgeStyle;entryX=0.722;entryY=1.009;entryDx=0;entryDy=0;entryPerimeter=0;exitX=0.495;exitY=-0.003;exitDx=0;exitDy=0;exitPerimeter=0;" edge="1" parent="1" source="zP_GE6idb2QgoOQ9gRlq-197" target="zP_GE6idb2QgoOQ9gRlq-164">
          <mxGeometry width="50" height="50" relative="1" as="geometry">
            <mxPoint x="82.98" y="753" as="sourcePoint" />
            <mxPoint x="292.98" y="753" as="targetPoint" />
            <Array as="points">
              <mxPoint x="285.98" y="714" />
              <mxPoint x="285.98" y="753" />
            </Array>
          </mxGeometry>
        </mxCell>
        <mxCell id="zP_GE6idb2QgoOQ9gRlq-203" style="edgeStyle=orthogonalEdgeStyle;rounded=0;orthogonalLoop=1;jettySize=auto;html=1;" edge="1" parent="1" target="zP_GE6idb2QgoOQ9gRlq-160">
          <mxGeometry relative="1" as="geometry">
            <mxPoint x="285.98" y="718" as="sourcePoint" />
            <Array as="points">
              <mxPoint x="285.98" y="655" />
              <mxPoint x="285.98" y="655" />
            </Array>
          </mxGeometry>
        </mxCell>
        <mxCell id="zP_GE6idb2QgoOQ9gRlq-197" value="" style="verticalLabelPosition=middle;verticalAlign=middle;html=1;shape=trapezoid;perimeter=trapezoidPerimeter;whiteSpace=wrap;size=0.2727272727272727;arcSize=10;flipV=1;labelPosition=center;align=center;rotation=-90;fillColor=none;" vertex="1" parent="1">
          <mxGeometry x="233.67000000000007" y="702.7299999999999" width="55.28" height="21.48" as="geometry" />
        </mxCell>
        <mxCell id="zP_GE6idb2QgoOQ9gRlq-214" style="edgeStyle=orthogonalEdgeStyle;rounded=0;orthogonalLoop=1;jettySize=auto;html=1;entryX=0;entryY=0.5;entryDx=0;entryDy=0;" edge="1" parent="1" source="zP_GE6idb2QgoOQ9gRlq-200" target="zP_GE6idb2QgoOQ9gRlq-178">
          <mxGeometry relative="1" as="geometry" />
        </mxCell>
        <mxCell id="zP_GE6idb2QgoOQ9gRlq-200" value="" style="verticalLabelPosition=middle;verticalAlign=middle;html=1;shape=trapezoid;perimeter=trapezoidPerimeter;whiteSpace=wrap;size=0.2727272727272727;arcSize=10;flipV=1;labelPosition=center;align=center;rotation=-90;fillColor=none;" vertex="1" parent="1">
          <mxGeometry x="62.70000000000006" y="790.4799999999999" width="55.28" height="21.48" as="geometry" />
        </mxCell>
        <mxCell id="zP_GE6idb2QgoOQ9gRlq-204" style="edgeStyle=orthogonalEdgeStyle;rounded=0;orthogonalLoop=1;jettySize=auto;html=1;entryX=0.25;entryY=0;entryDx=0;entryDy=0;" edge="1" parent="1" source="zP_GE6idb2QgoOQ9gRlq-180" target="zP_GE6idb2QgoOQ9gRlq-197">
          <mxGeometry relative="1" as="geometry">
            <Array as="points">
              <mxPoint x="242.98000000000002" y="727" />
            </Array>
          </mxGeometry>
        </mxCell>
        <mxCell id="zP_GE6idb2QgoOQ9gRlq-215" value="" style="group" vertex="1" connectable="0" parent="1">
          <mxGeometry x="593.98" y="718" width="28" height="39" as="geometry" />
        </mxCell>
        <mxCell id="zP_GE6idb2QgoOQ9gRlq-216" value="" style="rounded=0;whiteSpace=wrap;html=1;" vertex="1" parent="zP_GE6idb2QgoOQ9gRlq-215">
          <mxGeometry width="28" height="39" as="geometry" />
        </mxCell>
        <mxCell id="zP_GE6idb2QgoOQ9gRlq-217" value="" style="triangle;whiteSpace=wrap;html=1;rotation=90;" vertex="1" parent="zP_GE6idb2QgoOQ9gRlq-215">
          <mxGeometry x="-1" y="2.259999999999991" width="14" height="10" as="geometry" />
        </mxCell>
        <mxCell id="zP_GE6idb2QgoOQ9gRlq-218" value="" style="group" vertex="1" connectable="0" parent="1">
          <mxGeometry x="642.98" y="718" width="28" height="39" as="geometry" />
        </mxCell>
        <mxCell id="zP_GE6idb2QgoOQ9gRlq-219" value="" style="rounded=0;whiteSpace=wrap;html=1;" vertex="1" parent="zP_GE6idb2QgoOQ9gRlq-218">
          <mxGeometry width="28" height="39" as="geometry" />
        </mxCell>
        <mxCell id="zP_GE6idb2QgoOQ9gRlq-220" value="" style="triangle;whiteSpace=wrap;html=1;rotation=90;" vertex="1" parent="zP_GE6idb2QgoOQ9gRlq-218">
          <mxGeometry x="-1" y="2.259999999999991" width="14" height="10" as="geometry" />
        </mxCell>
        <mxCell id="zP_GE6idb2QgoOQ9gRlq-221" style="edgeStyle=orthogonalEdgeStyle;rounded=0;orthogonalLoop=1;jettySize=auto;html=1;entryX=0.602;entryY=1.001;entryDx=0;entryDy=0;entryPerimeter=0;" edge="1" parent="1" source="zP_GE6idb2QgoOQ9gRlq-219" target="zP_GE6idb2QgoOQ9gRlq-188">
          <mxGeometry relative="1" as="geometry" />
        </mxCell>
        <mxCell id="zP_GE6idb2QgoOQ9gRlq-224" value="..." style="text;html=1;strokeColor=none;fillColor=none;align=center;verticalAlign=middle;whiteSpace=wrap;rounded=0;" vertex="1" parent="1">
          <mxGeometry x="600.98" y="719" width="60" height="30" as="geometry" />
        </mxCell>
        <mxCell id="zP_GE6idb2QgoOQ9gRlq-225" value="" style="endArrow=classic;html=1;rounded=0;edgeStyle=orthogonalEdgeStyle;entryX=-0.02;entryY=0.599;entryDx=0;entryDy=0;entryPerimeter=0;" edge="1" parent="1" target="zP_GE6idb2QgoOQ9gRlq-175">
          <mxGeometry width="50" height="50" relative="1" as="geometry">
            <mxPoint x="19.980000000000004" y="739" as="sourcePoint" />
            <mxPoint x="27.980000000000004" y="683" as="targetPoint" />
            <Array as="points">
              <mxPoint x="19.980000000000004" y="739" />
              <mxPoint x="33.980000000000004" y="739" />
            </Array>
          </mxGeometry>
        </mxCell>
        <mxCell id="zP_GE6idb2QgoOQ9gRlq-226" value="" style="endArrow=classic;html=1;rounded=0;edgeStyle=orthogonalEdgeStyle;entryX=0.801;entryY=1.008;entryDx=0;entryDy=0;entryPerimeter=0;exitX=0.619;exitY=0.998;exitDx=0;exitDy=0;exitPerimeter=0;startArrow=classic;startFill=1;" edge="1" parent="1" source="zP_GE6idb2QgoOQ9gRlq-200" target="zP_GE6idb2QgoOQ9gRlq-197">
          <mxGeometry width="50" height="50" relative="1" as="geometry">
            <mxPoint x="-84.02" y="754.22" as="sourcePoint" />
            <mxPoint x="110.98" y="754.22" as="targetPoint" />
            <Array as="points">
              <mxPoint x="54.980000000000004" y="795" />
              <mxPoint x="54.980000000000004" y="697" />
            </Array>
          </mxGeometry>
        </mxCell>
        <mxCell id="zP_GE6idb2QgoOQ9gRlq-227" value="" style="shape=ellipse;html=1;sketch=0;fillColor=#FFFFFF;" vertex="1" parent="1">
          <mxGeometry x="52.7" y="736" width="5.43" height="5.43" as="geometry" />
        </mxCell>
        <mxCell id="zP_GE6idb2QgoOQ9gRlq-228" value="&lt;div style=&quot;font-size: 8px;&quot;&gt;&lt;font style=&quot;font-size: 8px;&quot;&gt;ntt&lt;br&gt;&lt;br&gt;&lt;/font&gt;&lt;/div&gt;&lt;div style=&quot;font-size: 8px;&quot;&gt;&lt;font style=&quot;font-size: 8px;&quot;&gt;intt&lt;/font&gt;&lt;/div&gt;" style="text;html=1;strokeColor=none;fillColor=none;align=center;verticalAlign=middle;whiteSpace=wrap;rounded=0;fontSize=9;" vertex="1" parent="1">
          <mxGeometry x="77.26999999999997" y="780.29" width="26.15" height="42" as="geometry" />
        </mxCell>
        <mxCell id="zP_GE6idb2QgoOQ9gRlq-229" value="&lt;div style=&quot;font-size: 8px;&quot;&gt;&lt;font style=&quot;font-size: 8px;&quot;&gt;intt&lt;br&gt;&lt;br&gt;&lt;/font&gt;&lt;/div&gt;&lt;div style=&quot;font-size: 8px;&quot;&gt;&lt;font style=&quot;font-size: 8px;&quot;&gt;ntt&lt;/font&gt;&lt;/div&gt;" style="text;html=1;strokeColor=none;fillColor=none;align=center;verticalAlign=middle;whiteSpace=wrap;rounded=0;fontSize=9;" vertex="1" parent="1">
          <mxGeometry x="311.84000000000003" y="746.42" width="26.15" height="42" as="geometry" />
        </mxCell>
        <mxCell id="zP_GE6idb2QgoOQ9gRlq-230" value="&lt;div style=&quot;font-size: 8px;&quot;&gt;&lt;font style=&quot;font-size: 8px;&quot;&gt;intt&lt;br&gt;&lt;br&gt;&lt;/font&gt;&lt;/div&gt;&lt;div style=&quot;font-size: 8px;&quot;&gt;&lt;font style=&quot;font-size: 8px;&quot;&gt;ntt&lt;/font&gt;&lt;/div&gt;" style="text;html=1;strokeColor=none;fillColor=none;align=center;verticalAlign=middle;whiteSpace=wrap;rounded=0;fontSize=9;" vertex="1" parent="1">
          <mxGeometry x="247.67000000000002" y="693.26" width="26.15" height="42" as="geometry" />
        </mxCell>
        <mxCell id="zP_GE6idb2QgoOQ9gRlq-231" value="&lt;div style=&quot;font-size: 12px;&quot;&gt;&lt;font style=&quot;font-size: 12px;&quot;&gt;ntt(1)&lt;br&gt;&lt;br&gt;&lt;/font&gt;&lt;/div&gt;&lt;div style=&quot;font-size: 12px;&quot;&gt;&lt;font style=&quot;font-size: 12px;&quot;&gt;intt(0)&lt;/font&gt;&lt;/div&gt;&lt;div style=&quot;font-size: 12px;&quot;&gt;&lt;font style=&quot;font-size: 12px;&quot;&gt;&lt;br&gt;&lt;/font&gt;&lt;/div&gt;&lt;div style=&quot;font-size: 12px;&quot;&gt;&lt;font style=&quot;font-size: 12px;&quot;&gt;ntt(0)&lt;/font&gt;&lt;/div&gt;&lt;div style=&quot;font-size: 12px;&quot;&gt;&lt;font style=&quot;font-size: 12px;&quot;&gt;&lt;br&gt;&lt;/font&gt;&lt;/div&gt;&lt;div style=&quot;font-size: 12px;&quot;&gt;&lt;font style=&quot;font-size: 12px;&quot;&gt;intt(1)&lt;br&gt;&lt;/font&gt;&lt;/div&gt;" style="text;html=1;strokeColor=none;fillColor=none;align=center;verticalAlign=middle;whiteSpace=wrap;rounded=0;fontSize=9;" vertex="1" parent="1">
          <mxGeometry x="709.67" y="694.1200000000002" width="35" height="115.7" as="geometry" />
        </mxCell>
      </root>
    </mxGraphModel>
  </diagram>
</mxfile>
